<?xml version="1.0" standalone="no"?>
<!DOCTYPE svg PUBLIC "-//W3C//DTD SVG 20010904//EN"
 "http://www.w3.org/TR/2001/REC-SVG-20010904/DTD/svg10.dtd">
<svg version="1.0" xmlns="http://www.w3.org/2000/svg"
 width="81.000000pt" height="96.000000pt" viewBox="0 0 81.000000 96.000000"
 preserveAspectRatio="xMidYMid meet">
<metadata>
Created by potrace 1.15, written by Peter Selinger 2001-2017
</metadata>
<g transform="translate(0.000000,96.000000) scale(0.100000,-0.100000)"
fill="#000000" stroke="none">
<path d="M0 920 c0 -34 3 -40 21 -40 l21 0 -4 -440 -3 -440 370 0 370 0 -3
440 -4 440 21 0 c18 0 21 6 21 40 l0 40 -405 0 -405 0 0 -40z m100 -102 c0
-62 17 -98 45 -98 7 0 18 -7 25 -15 9 -11 34 -15 100 -15 74 0 90 3 105 20 10
11 23 20 30 20 7 0 20 -9 30 -20 15 -17 31 -20 105 -20 66 0 91 4 100 15 7 8
17 15 23 15 6 0 19 7 29 17 14 12 18 31 18 80 0 35 4 63 10 63 6 0 10 -65 10
-175 l0 -175 -325 0 -325 0 0 175 c0 110 4 175 10 175 6 0 10 -27 10 -62z
m278 50 c7 -7 12 -30 12 -52 0 -38 -1 -38 -19 -22 -15 14 -35 16 -107 14 -80
-3 -90 -5 -100 -25 -6 -13 -14 -20 -17 -16 -9 8 -9 98 0 106 12 13 218 8 231
-5z m290 -37 c2 -24 0 -50 -3 -59 -5 -13 -8 -12 -18 8 -12 23 -18 25 -101 28
-72 2 -92 0 -107 -14 -18 -16 -19 -16 -19 22 0 61 10 65 135 62 l110 -3 3 -44z
m62 -711 l0 -40 -325 0 -325 0 0 40 0 40 325 0 325 0 0 -40z"/>
</g>
</svg>
