<?xml version="1.0" standalone="no"?>
<!DOCTYPE svg PUBLIC "-//W3C//DTD SVG 20010904//EN"
 "http://www.w3.org/TR/2001/REC-SVG-20010904/DTD/svg10.dtd">
<svg version="1.0" xmlns="http://www.w3.org/2000/svg"
 width="53.000000pt" height="61.000000pt" viewBox="0 0 53.000000 61.000000"
 preserveAspectRatio="xMidYMid meet">
<metadata>
Created by potrace 1.15, written by Peter Selinger 2001-2017
</metadata>
<g transform="translate(0.000000,61.000000) scale(0.100000,-0.100000)"
fill="#000000" stroke="none">
<path d="M26 589 l-26 -20 0 -265 c0 -251 1 -265 20 -284 19 -19 33 -20 250
-20 222 0 230 1 240 21 6 11 10 38 9 59 -2 22 0 42 4 46 9 10 9 348 0 358 -4
4 -6 25 -4 47 2 28 -3 47 -15 60 -16 18 -33 19 -234 19 -205 0 -219 -1 -244
-21z m452 -51 l-3 -33 -202 -5 c-143 -4 -206 -9 -215 -17 -6 -7 -16 -13 -20
-13 -15 0 -8 63 9 82 15 16 35 18 225 18 l209 0 -3 -32z m17 -238 l0 -155
-122 -3 -123 -3 0 161 0 161 123 -3 122 -3 0 -155z m-425 -185 c10 -12 47 -15
212 -15 l199 0 -3 -32 -3 -33 -204 -3 c-229 -3 -241 0 -241 65 0 36 18 44 40
18z"/>
</g>
</svg>
