<?xml version="1.0" standalone="no"?>
<!DOCTYPE svg PUBLIC "-//W3C//DTD SVG 20010904//EN"
 "http://www.w3.org/TR/2001/REC-SVG-20010904/DTD/svg10.dtd">
<svg version="1.0" xmlns="http://www.w3.org/2000/svg"
 width="84.000000pt" height="63.000000pt" viewBox="0 0 84.000000 63.000000"
 preserveAspectRatio="xMidYMid meet">
<metadata>
Created by potrace 1.15, written by Peter Selinger 2001-2017
</metadata>
<g transform="translate(0.000000,63.000000) scale(0.100000,-0.100000)"
fill="#000000" stroke="none">
<path d="M290 620 c0 -5 -7 -10 -15 -10 -25 0 -37 -39 -33 -111 l3 -69 -103 0
c-57 0 -112 -5 -123 -10 -18 -10 -19 -23 -19 -203 0 -137 3 -196 12 -205 9 -9
113 -12 404 -12 l393 0 15 22 c13 18 16 55 16 193 0 224 6 215 -143 215 l-112
0 3 69 c4 72 -8 111 -33 111 -8 0 -15 5 -15 10 0 6 -48 10 -125 10 -77 0 -125
-4 -125 -10z m220 -150 l0 -40 -95 0 -95 0 0 40 0 40 95 0 95 0 0 -40z m290
-255 l0 -175 -385 0 -385 0 0 175 0 175 385 0 385 0 0 -175z"/>
<path d="M280 330 l0 -40 120 0 120 0 0 40 0 40 -120 0 -120 0 0 -40z"/>
<path d="M360 226 c0 -10 -14 -16 -42 -18 -46 -3 -53 -13 -73 -105 l-7 -33
177 0 177 0 -7 33 c-20 92 -27 102 -72 105 -29 2 -43 8 -43 18 0 10 -14 14
-55 14 -41 0 -55 -4 -55 -14z m181 -90 c5 -17 7 -31 5 -33 -2 -2 -62 -2 -133
-1 l-129 3 8 33 9 33 116 -3 117 -3 7 -29z"/>
</g>
</svg>
