<?xml version="1.0" standalone="no"?>
<!DOCTYPE svg PUBLIC "-//W3C//DTD SVG 20010904//EN"
 "http://www.w3.org/TR/2001/REC-SVG-20010904/DTD/svg10.dtd">
<svg version="1.0" xmlns="http://www.w3.org/2000/svg"
 width="83.000000pt" height="53.000000pt" viewBox="0 0 83.000000 53.000000"
 preserveAspectRatio="xMidYMid meet">
<metadata>
Created by potrace 1.15, written by Peter Selinger 2001-2017
</metadata>
<g transform="translate(0.000000,53.000000) scale(0.100000,-0.100000)"
fill="#000000" stroke="none">
<path d="M2 420 c0 -92 3 -110 17 -113 14 -4 13 -5 -1 -6 -23 -1 -23 -28 0
-34 16 -4 16 -5 0 -6 -10 0 -18 -7 -18 -15 0 -8 8 -17 18 -19 16 -4 16 -5 0
-6 -23 -1 -23 -28 0 -34 16 -4 16 -5 0 -6 -10 0 -18 -7 -18 -15 0 -8 8 -17 18
-19 14 -4 14 -5 1 -6 -13 -1 -17 -14 -18 -71 l-1 -70 415 0 415 0 -1 70 c-1
54 -5 70 -18 73 -14 4 -14 5 2 6 22 1 22 28 0 34 -17 4 -17 5 0 6 9 0 17 7 17
15 0 8 -8 17 -17 19 -17 4 -17 5 0 6 9 0 17 7 17 15 0 8 -8 17 -17 19 -17 4
-17 5 0 6 9 0 17 7 17 15 0 8 -8 17 -17 19 -16 4 -16 5 -1 6 14 1 17 15 17
111 l0 110 -414 0 -413 0 0 -110z m108 -155 c0 -228 -1 -235 -20 -235 -19 0
-20 7 -20 235 0 228 1 235 20 235 19 0 20 -7 20 -235z m120 0 c0 -228 -1 -235
-20 -235 -19 0 -20 7 -20 235 0 228 1 235 20 235 19 0 20 -7 20 -235z m80 0
l0 -235 -25 0 -25 0 0 235 0 235 25 0 25 0 0 -235z m140 0 l0 -235 -35 0 -35
0 0 235 0 235 35 0 35 0 0 -235z m120 0 l0 -235 -25 0 -25 0 0 235 0 235 25 0
25 0 0 -235z m70 0 c0 -228 -1 -235 -20 -235 -19 0 -20 7 -20 235 0 228 1 235
20 235 19 0 20 -7 20 -235z m120 0 c0 -228 -1 -235 -20 -235 -19 0 -20 7 -20
235 0 228 1 235 20 235 19 0 20 -7 20 -235z"/>
</g>
</svg>
