<?xml version="1.0" standalone="no"?>
<!DOCTYPE svg PUBLIC "-//W3C//DTD SVG 20010904//EN"
 "http://www.w3.org/TR/2001/REC-SVG-20010904/DTD/svg10.dtd">
<svg version="1.0" xmlns="http://www.w3.org/2000/svg"
 width="23.000000pt" height="84.000000pt" viewBox="0 0 23.000000 84.000000"
 preserveAspectRatio="xMidYMid meet">
<metadata>
Created by potrace 1.15, written by Peter Selinger 2001-2017
</metadata>
<g transform="translate(0.000000,84.000000) scale(0.100000,-0.100000)"
fill="#000000" stroke="none">
<path d="M56 824 c-11 -10 -16 -34 -16 -70 0 -41 -4 -54 -15 -54 -13 0 -15
-38 -15 -285 0 -247 2 -285 15 -285 11 0 15 -12 15 -49 0 -81 0 -81 101 -81
l89 0 0 414 c0 470 10 426 -95 426 -44 0 -68 -5 -79 -16z m54 -135 c0 -16 8
-19 45 -19 l45 0 0 -251 c0 -147 -4 -248 -9 -245 -5 3 -7 15 -4 26 4 16 0 20
-21 20 -16 0 -26 -5 -26 -15 0 -8 -4 -15 -10 -15 -18 0 -10 45 10 58 19 11 20
23 20 167 0 144 -1 156 -20 167 -13 9 -20 24 -20 45 0 22 -6 36 -20 43 -24 13
-28 53 -5 44 8 -4 15 -15 15 -25z m-30 -274 c0 -214 -1 -225 -20 -235 -20 -11
-20 -8 -20 235 0 243 0 246 20 235 19 -10 20 -21 20 -235z"/>
</g>
</svg>
